<?xml version="1.0" standalone="no"?>
<!DOCTYPE svg PUBLIC "-//W3C//DTD SVG 20010904//EN"
 "http://www.w3.org/TR/2001/REC-SVG-20010904/DTD/svg10.dtd">
<svg version="1.0" xmlns="http://www.w3.org/2000/svg"
 width="512.000000pt" height="512.000000pt" viewBox="0 0 512.000000 512.000000"
 preserveAspectRatio="xMidYMid meet">
<metadata>
Created by potrace 1.14, written by Peter Selinger 2001-2017
</metadata>
<g transform="translate(0.000000,512.000000) scale(0.100000,-0.100000)"
fill="#000000" stroke="none">
<path d="M0 2560 l0 -2560 858 0 857 0 -2 227 c-2 409 -6 434 -149 908 -77
257 -149 585 -127 585 5 0 69 36 143 80 73 44 136 77 139 74 3 -3 -1 -9 -8
-13 -8 -5 -9 -11 -3 -15 11 -7 27 10 36 39 3 11 41 43 83 70 296 192 581 417
1243 978 208 177 274 225 389 284 47 24 75 41 61 38 -78 -22 -279 -157 -445
-301 -156 -136 -562 -472 -700 -580 -525 -413 -964 -683 -1390 -858 -175 -71
-529 -186 -574 -186 -7 0 -11 28 -11 78 l0 79 108 22 c284 59 592 167 887 311
456 223 878 517 1585 1105 218 181 316 255 393 300 63 36 61 44 -3 9 -60 -33
-240 -167 -365 -273 -49 -42 -104 -87 -121 -101 -18 -14 -119 -95 -226 -181
-244 -196 -242 -195 -275 -180 -14 6 -28 10 -30 7 -8 -8 8 -27 17 -21 5 3 12
0 16 -6 4 -8 3 -9 -4 -5 -7 4 -12 1 -12 -7 0 -17 -170 -143 -420 -309 -147
-99 -176 -115 -181 -100 -4 10 -30 30 -58 45 l-51 28 -20 -33 c-11 -18 -20
-40 -20 -48 -1 -38 -16 -45 -59 -25 -29 12 -40 23 -37 34 3 9 8 45 11 81 5 49
4 62 -5 54 -10 -10 -35 -143 -28 -149 10 -8 109 -55 117 -55 5 0 14 22 21 50
17 70 32 79 75 46 61 -47 57 -51 -153 -166 -77 -42 -137 -69 -142 -64 -5 5
-11 34 -13 64 -3 54 -3 54 -5 -13 l-2 -68 -85 -40 c-47 -21 -133 -57 -192 -78
l-106 -39 6 86 c7 111 50 244 123 379 30 56 61 120 69 143 8 22 27 57 42 78
38 52 15 29 -54 -54 -83 -100 -196 -224 -201 -220 -2 2 35 65 82 139 99 156
126 227 126 326 0 113 -12 125 -60 60 -36 -50 -66 -128 -90 -234 l-18 -80 -1
56 c-1 67 26 179 67 274 24 54 28 71 17 73 -19 4 -93 -40 -149 -89 l-47 -41
22 53 c12 30 23 59 25 64 3 6 52 55 109 109 92 85 110 108 145 180 22 45 40
89 40 97 0 14 -14 13 -117 -2 -136 -21 -193 -23 -193 -9 0 6 6 10 13 10 6 0
49 16 95 35 l83 34 75 -15 c74 -14 122 -18 113 -10 -2 2 -44 11 -94 20 -233
41 -422 92 -548 149 -104 46 -83 52 181 51 172 -1 205 1 139 7 -49 4 -112 13
-140 20 -59 13 -171 61 -180 77 -4 6 26 11 81 14 69 4 117 14 229 51 l143 47
74 -47 c41 -27 114 -75 163 -109 48 -33 118 -81 154 -106 38 -26 100 -56 152
-73 l86 -28 -24 -31 c-39 -51 -149 -274 -188 -381 -69 -190 -166 -598 -155
-653 2 -9 10 12 17 48 23 122 90 397 117 481 46 146 94 260 171 401 71 131 76
138 101 133 15 -3 -4 6 -43 20 -108 39 -238 109 -381 205 -72 48 -156 102
-187 120 -32 18 -57 36 -57 41 0 5 103 8 238 7 194 -1 282 3 487 25 413 43
490 45 590 12 16 -6 17 -5 5 4 -12 8 -6 11 25 12 31 0 20 5 -50 20 -105 22
-105 22 -85 8 12 -8 11 -9 -5 -6 -11 2 -19 9 -17 15 1 7 -5 12 -13 12 -21 0
-88 62 -131 122 -26 34 -39 46 -45 37 -6 -10 -26 -6 -86 18 -192 75 -452 127
-768 154 -89 7 -252 10 -450 7 -200 -4 -296 -2 -270 4 91 21 661 109 800 124
183 20 501 14 610 -10 107 -24 249 -74 364 -128 57 -26 106 -47 108 -45 1 2
-21 14 -50 28 -28 13 -78 48 -109 78 -59 55 -75 81 -37 60 19 -9 227 -89 235
-89 8 0 -18 64 -37 91 -59 83 -84 199 -56 261 12 27 13 26 103 -102 60 -85
110 -144 145 -171 l54 -42 -62 65 c-62 65 -89 115 -36 67 19 -17 15 -9 -14 31
-49 67 -67 100 -54 100 5 0 13 -5 16 -10 4 -6 34 -33 68 -61 34 -28 67 -61 72
-73 10 -21 195 -205 195 -194 0 3 -36 40 -79 83 -71 69 -83 86 -108 154 -20
55 -28 95 -28 143 0 84 19 111 30 41 16 -111 84 -241 166 -318 38 -35 39 -36
16 -7 -24 30 -32 51 -53 135 -9 40 2 33 28 -15 17 -33 23 -39 26 -24 3 13 14
-4 33 -50 32 -76 67 -121 55 -71 -9 40 -2 34 32 -26 35 -62 100 -124 139 -132
53 -11 248 -68 282 -81 31 -13 33 -13 28 4 -20 61 -18 64 13 19 28 -42 56 -67
75 -67 3 0 1 9 -5 19 -33 62 -26 65 29 11 54 -55 60 -58 150 -79 100 -23 117
-25 86 -10 -27 12 37 3 185 -26 63 -13 101 -23 84 -24 -18 -1 -69 6 -114 15
-45 8 -84 13 -86 11 -9 -9 175 -40 264 -45 l94 -5 -17 33 c-9 18 -13 30 -8 28
30 -15 82 -37 101 -43 21 -6 23 -5 17 16 l-7 23 30 -20 c40 -25 40 -37 -1 -46
-50 -10 -138 -52 -165 -78 -15 -14 -22 -31 -20 -48 3 -22 9 -28 43 -33 74 -12
221 -19 199 -10 -12 5 -62 12 -112 16 -107 9 -131 20 -111 53 36 58 188 102
351 102 101 0 123 -8 132 -47 4 -16 16 -52 28 -82 21 -52 21 -54 3 -67 -10 -8
-14 -14 -9 -14 6 0 15 5 21 11 8 8 15 5 25 -10 8 -12 18 -18 23 -13 5 4 5 1 1
-5 -4 -7 2 -43 14 -80 17 -54 18 -72 9 -100 -6 -18 -14 -33 -17 -33 -4 0 -22
17 -40 37 -30 36 -31 36 -22 10 15 -43 12 -82 -9 -108 l-20 -24 -15 37 c-12
28 -14 48 -7 83 6 33 5 48 -3 50 -38 12 -232 22 -244 12 -10 -8 -10 -12 0 -18
9 -6 6 -20 -12 -58 -26 -57 -47 -65 -55 -23 -3 15 -10 42 -14 60 -6 22 -6 32
2 32 6 0 2 9 -10 21 -15 15 -27 19 -43 14 -35 -11 -143 -125 -174 -185 -16
-30 -38 -65 -48 -77 -20 -21 -20 -21 3 -53 23 -30 23 -32 8 -88 l-14 -57 32 0
c31 0 33 2 32 35 -1 30 -2 32 -8 11 -4 -14 -12 -26 -19 -29 -9 -3 -10 11 -6
56 4 34 2 67 -4 78 -8 16 -7 22 9 32 27 17 69 15 69 -3 0 -8 -11 -22 -25 -31
-14 -9 -25 -23 -25 -31 0 -18 77 53 85 78 14 43 44 -1 47 -67 1 -36 -50 -151
-79 -176 -34 -29 -62 -32 -74 -6 -12 28 -49 30 -78 4 -11 -10 -27 -16 -34 -13
-42 16 -191 -100 -253 -199 -18 -29 -23 -32 -18 -14 19 70 92 157 179 212 62
39 66 46 20 28 l-27 -10 25 30 c14 16 29 40 33 52 l6 21 15 -24 c10 -17 12
-18 8 -4 -11 30 -10 36 4 88 11 39 17 48 32 44 16 -4 14 2 -11 36 -66 92 -73
98 -120 104 -41 5 -43 4 -26 -9 18 -14 18 -16 2 -50 -9 -19 -30 -48 -46 -63
-33 -32 -35 -30 -44 52 l-7 52 38 4 c32 3 29 4 -12 4 -27 1 -75 -2 -105 -7
l-55 -7 49 -2 48 -1 -7 -37 c-8 -44 -46 -118 -60 -118 -6 0 -13 24 -16 53 -4
29 -14 63 -22 76 -12 17 -13 26 -4 35 8 8 -7 11 -60 11 -55 0 -81 -5 -113 -22
-67 -36 -129 -97 -181 -176 -67 -101 -94 -163 -146 -326 l-45 -141 5 -122 c4
-118 6 -126 41 -198 l37 -76 40 3 c21 1 39 6 39 11 0 4 -9 5 -20 2 -26 -8 -25
0 5 59 14 27 25 60 25 74 0 23 -3 24 -40 19 -43 -5 -51 5 -27 37 12 17 47 14
47 -5 0 -14 144 -107 229 -148 43 -21 108 -46 144 -57 l67 -19 -38 -11 c-33
-10 -29 -10 35 -6 39 2 88 1 110 -4 35 -7 32 -8 -39 -14 -43 -3 -80 -9 -83
-12 -6 -6 10 -85 27 -130 8 -22 6 -32 -11 -56 -22 -32 -38 -125 -27 -166 5
-22 12 -26 44 -26 35 -1 36 -1 17 -16 -28 -21 -67 -14 -83 16 -18 35 -7 124
23 177 13 24 20 43 15 43 -16 0 -50 -68 -60 -121 -6 -29 -14 -56 -20 -59 -13
-8 38 -70 66 -80 15 -6 34 -6 49 0 37 14 33 -12 -14 -106 -22 -43 -39 -80 -37
-81 1 -1 16 19 32 45 46 70 68 135 60 177 -8 41 10 49 20 9 17 -66 -18 -164
-80 -223 -38 -37 -46 -70 -21 -91 8 -7 15 -18 15 -26 0 -28 -36 -91 -82 -142
-55 -62 -61 -97 -28 -170 13 -29 15 -42 7 -40 -6 3 -19 24 -27 49 -25 71 -28
76 -23 34 8 -52 28 -91 56 -107 l22 -12 -25 -7 -25 -7 28 -1 c35 -1 36 -21 1
-21 -24 0 -25 -2 -13 -17 13 -15 12 -15 -8 -4 -19 10 -22 9 -17 -4 7 -18 0
-19 -29 -4 -13 7 -8 -2 13 -20 32 -29 33 -31 10 -25 -14 3 -29 10 -34 15 -6 5
-18 9 -27 9 -10 0 -21 4 -24 10 -4 6 1 7 11 3 13 -5 12 0 -6 25 -13 18 -24 32
-25 32 -1 0 -1 -13 0 -29 2 -40 92 -146 333 -394 202 -208 308 -334 377 -447
l36 -60 490 0 489 0 0 2560 0 2560 -2560 0 -2560 0 0 -2560z m1992 1306 c42
-8 87 -22 100 -31 l23 -17 -30 6 c-16 3 -87 9 -156 12 -167 9 -176 -5 -24 -42
63 -15 111 -32 107 -36 -4 -4 -64 -1 -132 7 -69 8 -156 15 -194 15 -84 0 -106
-15 -106 -72 0 -35 4 -40 35 -54 19 -7 57 -14 84 -14 98 0 59 -18 -57 -26
-408 -29 -684 29 -847 178 -31 28 -54 52 -52 54 1 2 39 -9 82 -23 116 -38 311
-38 550 2 359 59 473 66 617 41z m2679 -205 c19 -20 29 -39 28 -58 -1 -26 -2
-25 -13 10 -14 46 -26 54 -98 66 l-53 9 53 1 c47 1 57 -3 83 -28z m-2406 9 c3
-5 1 -10 -4 -10 -6 0 -11 5 -11 10 0 6 2 10 4 10 3 0 8 -4 11 -10z m2025 -362
c0 -26 -43 -122 -58 -132 -13 -8 -27 17 -35 61 -6 28 -2 36 31 63 44 36 62 38
62 8z m250 -35 c0 -34 -47 -115 -53 -93 -2 8 -11 39 -20 68 l-15 52 44 0 c41
0 44 -2 44 -27z m100 0 c0 -14 -12 -47 -27 -72 -22 -39 -23 -43 -5 -28 20 18
21 18 32 -3 15 -27 0 -74 -39 -120 l-29 -35 -15 36 c-27 65 -30 96 -11 124 13
19 15 37 10 75 l-7 50 46 0 c42 0 45 -2 45 -27z m-170 -88 c5 -14 17 -25 26
-25 14 0 16 -10 12 -65 -3 -54 -9 -70 -30 -91 -14 -15 -30 -24 -36 -20 -5 3
-15 35 -22 70 -11 61 -11 67 9 92 12 15 21 35 21 45 0 26 9 24 20 -6z m-917
-21 c8 -8 -19 -73 -40 -96 -23 -26 -33 -22 -33 11 0 16 -4 41 -9 54 -6 14 -7
28 -4 31 8 8 78 8 86 0z m-113 -59 c-12 -77 -79 -130 -86 -68 -1 10 -5 26 -9
35 -5 12 4 25 36 47 58 43 67 41 59 -14z m895 15 c28 -29 29 -32 18 -83 -6
-28 -9 -54 -8 -55 9 -9 35 61 36 95 l1 38 9 -38 c13 -54 48 -119 62 -114 7 2
29 28 50 57 34 49 37 51 37 26 0 -35 -28 -89 -80 -154 -41 -53 -115 -110 -127
-99 -3 4 -14 25 -24 47 -17 37 -17 40 -1 41 24 1 -37 28 -65 29 -13 0 -23 1
-23 3 0 1 9 27 19 57 l19 55 16 -37 c10 -23 23 -38 34 -38 9 0 13 3 7 8 -5 4
-20 29 -33 56 -22 47 -22 49 -6 92 9 24 20 44 23 44 4 0 20 -14 36 -30z m-945
-137 c19 -1 49 -5 67 -9 l31 -6 -13 -44 c-7 -24 -11 -53 -8 -63 3 -14 -3 -23
-23 -33 -22 -11 -34 -32 -65 -118 -30 -82 -38 -98 -38 -71 -1 18 6 60 14 92 9
33 13 64 10 69 -12 19 -45 10 -57 -15 -9 -21 -19 -25 -66 -27 -54 -3 -55 -3
-79 -50 -23 -44 -43 -62 -43 -38 0 47 148 342 188 377 l27 22 10 -42 c9 -39
13 -42 45 -44z m509 21 c12 -19 21 -43 21 -53 0 -29 -53 -103 -132 -181 -41
-41 -85 -93 -96 -116 -30 -59 -52 -164 -52 -250 0 -74 0 -75 -22 -63 -13 7
-71 62 -130 122 -130 132 -128 126 -70 287 17 46 26 57 52 64 23 7 29 13 24
25 -12 27 1 121 16 121 16 0 60 -62 60 -84 0 -12 -7 -31 -15 -42 -22 -29 -17
-43 5 -15 32 37 26 87 -14 127 l-34 34 35 15 c20 8 41 15 48 15 18 0 26 -27
19 -58 -9 -36 8 -19 21 21 18 57 65 43 106 -33 l20 -35 -7 35 c-4 19 -13 45
-21 57 -15 23 -15 23 36 23 28 0 51 -4 51 -9 0 -4 -11 -6 -25 -3 -24 4 -25 3
-25 -51 0 -31 4 -58 9 -61 5 -4 7 3 4 14 -7 26 5 70 19 70 7 0 9 -14 5 -40 -3
-23 -1 -38 4 -34 5 3 9 14 9 24 0 23 41 110 51 110 4 0 16 -16 28 -36z m45 17
c8 -13 -4 -42 -15 -35 -12 7 -12 44 0 44 6 0 12 -4 15 -9z m325 -147 c29 -37
29 -66 0 -35 -11 12 -32 26 -46 32 -13 5 -21 13 -18 19 11 18 43 10 64 -16z
m-1157 -271 c-2 -16 -9 -33 -14 -40 -5 -7 -7 -17 -3 -23 3 -5 1 -10 -4 -10
-14 0 -14 13 1 61 13 45 28 53 20 12z m133 -74 c55 -56 61 -66 30 -44 -53 38
-95 76 -106 98 -19 35 8 15 76 -54z m437 -50 c-15 -145 -14 -146 83 -207 88
-56 132 -74 233 -97 79 -19 304 -34 472 -33 184 1 184 -4 0 -18 l-165 -12 173
3 c172 3 247 -5 304 -36 32 -17 17 -18 -42 -3 -53 14 -134 12 -144 -4 -3 -5 9
-29 25 -55 62 -100 62 -183 -2 -242 -31 -30 -31 -30 -23 -5 26 73 -23 241 -77
270 -16 9 -65 11 -168 8 -110 -4 -158 -1 -196 10 -69 20 -95 33 -95 49 0 10
22 12 115 7 163 -10 146 9 -22 24 -135 12 -255 37 -317 68 -17 9 -66 37 -110
62 l-78 47 5 85 c5 81 25 185 34 177 2 -3 0 -47 -5 -98z m-260 24 c38 -26 108
-111 108 -131 0 -6 14 -22 31 -36 17 -14 26 -26 20 -26 -41 0 26 -101 82 -125
23 -9 67 -28 97 -41 30 -13 89 -37 130 -53 103 -41 60 -39 -125 4 -203 49
-247 62 -329 100 -66 30 -196 116 -151 100 92 -34 196 -50 225 -35 19 10 21
17 15 53 -5 33 -16 50 -47 77 -22 19 -53 46 -69 60 -27 24 -50 80 -33 80 4 0
25 -12 46 -27z m-328 -79 c4 -9 4 -19 2 -21 -8 -8 -26 8 -26 23 0 19 16 18 24
-2z m50 -73 c-5 -29 -14 -47 -31 -58 -29 -19 -39 -11 -48 40 -6 32 -5 37 11
37 11 1 30 7 44 15 14 7 26 12 28 11 1 -2 0 -22 -4 -45z m50 -124 c-17 -48
-41 -87 -53 -87 -11 0 -31 47 -31 75 0 14 -4 25 -10 25 -5 0 -10 7 -10 15 0 8
7 15 16 15 9 0 12 -5 8 -12 -6 -10 -5 -10 7 -1 14 11 67 22 81 16 4 -2 0 -22
-8 -46z m-2286 -389 c0 -48 7 -93 20 -130 16 -45 18 -58 7 -58 -27 0 -60 72
-59 130 0 47 19 130 29 130 1 0 3 -33 3 -72z m481 -260 c-22 -43 -42 -168 -27
-168 4 0 8 9 8 21 0 11 4 18 9 15 5 -3 12 -39 16 -78 7 -71 18 -107 37 -119 5
-3 14 -39 19 -80 12 -89 49 -232 89 -340 17 -44 30 -85 30 -90 0 -15 -156 166
-184 213 -34 59 -54 142 -67 278 -10 113 -23 181 -56 308 -26 99 -24 67 3 -63
41 -202 32 -386 -24 -456 l-19 -23 -5 72 c-4 56 -13 87 -38 135 -65 122 -149
292 -150 300 0 4 12 12 28 18 15 6 99 46 187 90 l160 79 3 -34 c2 -21 -5 -51
-19 -78z m2301 -628 c0 -6 10 -5 25 2 35 16 42 4 22 -37 -23 -49 -21 -63 4
-31 26 33 37 33 41 -1 l4 -28 11 25 c10 22 12 22 13 5 1 -18 3 -17 24 9 13 15
25 23 27 17 2 -6 16 -12 32 -13 16 -1 27 -8 27 -17 0 -12 3 -12 12 -3 17 17
29 15 22 -3 -4 -10 0 -15 12 -15 17 -1 17 -2 4 -13 -9 -7 -16 -23 -17 -36 -2
-30 -8 -35 -29 -23 -10 6 -31 6 -56 -1 -48 -12 -56 -5 -34 28 10 15 16 34 14
43 -4 18 -80 -85 -98 -133 -12 -33 -26 -25 -33 17 -3 18 -8 43 -12 56 -11 35
9 26 23 -10 l12 -33 26 39 c31 45 21 60 -33 50 -29 -5 -33 -4 -33 15 0 12 7
36 17 54 15 30 15 31 -1 18 -10 -8 -24 -27 -32 -43 -14 -27 -41 -41 -31 -15 2
6 8 23 12 36 11 35 -11 18 -35 -27 -14 -27 -19 -32 -20 -17 0 11 7 32 16 45
28 41 64 64 64 40z"/>
<path d="M3816 2874 c-4 -15 -2 -32 3 -37 8 -8 11 0 11 26 0 44 -5 47 -14 11z"/>
<path d="M3710 2842 c-19 -26 -26 -41 -17 -33 23 18 60 71 55 77 -3 2 -20 -17
-38 -44z"/>
<path d="M3590 2848 c0 -37 11 -88 20 -88 8 0 -6 99 -15 108 -3 3 -5 -6 -5
-20z"/>
<path d="M3866 832 c-5 -9 52 -7 61 2 4 3 -8 6 -25 6 -17 0 -33 -4 -36 -8z"/>
<path d="M2520 3940 c8 -5 20 -10 25 -10 6 0 3 5 -5 10 -8 5 -19 10 -25 10 -5
0 -3 -5 5 -10z"/>
<path d="M2623 3894 c38 -19 74 -33 80 -31 7 3 3 8 -8 11 -11 4 -44 18 -73 32
-78 36 -77 28 1 -12z"/>
<path d="M2120 3895 c13 -14 26 -25 28 -25 3 0 -5 11 -18 25 -13 14 -26 25
-28 25 -3 0 5 -11 18 -25z"/>
<path d="M3213 3883 c8 -13 93 -43 116 -42 9 0 -6 8 -34 18 -27 10 -59 22 -69
26 -13 6 -17 5 -13 -2z"/>
<path d="M2734 3846 c11 -9 24 -16 30 -16 12 0 7 5 -24 19 -24 11 -24 11 -6
-3z"/>
<path d="M3358 3833 c7 -3 16 -2 19 1 4 3 -2 6 -13 5 -11 0 -14 -3 -6 -6z"/>
<path d="M2641 3762 c12 -34 29 -52 29 -30 0 7 -9 24 -20 38 l-20 25 11 -33z"/>
<path d="M3838 3723 c7 -3 16 -2 19 1 4 3 -2 6 -13 5 -11 0 -14 -3 -6 -6z"/>
<path d="M2630 3711 c0 -6 4 -13 10 -16 6 -3 7 1 4 9 -7 18 -14 21 -14 7z"/>
<path d="M3365 3710 c-22 -5 -78 -24 -124 -43 l-84 -35 43 -7 c36 -6 54 -18
105 -71 57 -60 64 -64 106 -64 25 0 71 -7 102 -15 32 -8 60 -15 62 -15 3 0 5
31 5 69 0 38 4 71 9 73 5 2 2 19 -6 39 -10 26 -25 41 -51 52 -48 20 -116 27
-167 17z m99 -23 c9 -7 20 -31 23 -53 4 -35 2 -44 -18 -58 -40 -28 -83 -21
-118 19 -48 55 -37 95 26 95 22 0 33 -5 33 -14 0 -8 5 -18 11 -22 6 -3 10 1 9
12 -4 38 4 43 34 21z"/>
<path d="M2620 3680 c6 -11 13 -20 16 -20 2 0 0 9 -6 20 -6 11 -13 20 -16 20
-2 0 0 -9 6 -20z"/>
<path d="M2595 3660 c3 -5 8 -10 11 -10 2 0 4 5 4 10 0 6 -5 10 -11 10 -5 0
-7 -4 -4 -10z"/>
<path d="M4307 3563 c-15 -14 -4 -21 56 -32 34 -7 73 -20 87 -28 23 -16 23
-17 5 -24 -16 -6 -14 -8 11 -8 17 -1 53 -3 80 -6 l49 -4 -50 12 c-28 6 -66 24
-86 39 -51 40 -136 68 -152 51z"/>
<path d="M1450 3536 c0 -2 7 -7 16 -10 8 -3 12 -2 9 4 -6 10 -25 14 -25 6z"/>
<path d="M2180 3510 c-23 -7 -22 -8 10 -8 19 0 44 3 55 8 17 7 15 9 -10 8 -16
0 -41 -4 -55 -8z"/>
<path d="M1502 3493 c10 -11 37 -30 60 -43 55 -30 48 -22 -22 25 -30 20 -47
28 -38 18z"/>
<path d="M2288 3503 c7 -3 16 -2 19 1 4 3 -2 6 -13 5 -11 0 -14 -3 -6 -6z"/>
<path d="M1588 3493 c7 -3 16 -2 19 1 4 3 -2 6 -13 5 -11 0 -14 -3 -6 -6z"/>
<path d="M1833 3476 c9 -18 76 -60 83 -53 2 2 -18 19 -45 38 -37 28 -45 31
-38 15z"/>
<path d="M2335 3490 c19 -8 73 -14 64 -6 -2 2 -22 6 -44 9 -28 5 -34 4 -20 -3z"/>
<path d="M1628 3483 c6 -2 18 -2 25 0 6 3 1 5 -13 5 -14 0 -19 -2 -12 -5z"/>
<path d="M1898 3483 c6 -2 18 -2 25 0 6 3 1 5 -13 5 -14 0 -19 -2 -12 -5z"/>
<path d="M2038 3483 c7 -3 16 -2 19 1 4 3 -2 6 -13 5 -11 0 -14 -3 -6 -6z"/>
<path d="M1710 3469 c25 -4 61 -7 80 -7 29 1 26 2 -15 8 -69 11 -126 10 -65
-1z"/>
<path d="M2555 3449 c-17 -8 -15 -8 8 -4 16 3 27 1 27 -5 0 -6 5 -8 11 -4 8 4
7 9 -2 15 -17 10 -18 10 -44 -2z"/>
<path d="M3747 3443 c-9 -2 -15 -9 -12 -14 10 -15 32 -10 32 6 0 8 -1 14 -1
14 -1 -1 -9 -3 -19 -6z"/>
<path d="M2420 3435 c0 -7 57 -35 72 -35 7 0 -5 9 -27 20 -42 22 -45 22 -45
15z"/>
<path d="M1689 3403 c14 -26 54 -68 85 -88 46 -30 38 -10 -9 23 -25 18 -50 43
-57 57 -6 14 -15 25 -20 25 -5 0 -4 -8 1 -17z"/>
<path d="M1875 3404 c76 -17 103 -18 88 -3 -6 6 -42 12 -79 14 l-69 3 60 -14z"/>
<path d="M1840 3394 c0 -11 56 -50 85 -60 11 -3 4 4 -15 16 -19 12 -43 29 -52
38 -10 8 -18 11 -18 6z"/>
<path d="M1560 3375 c0 -7 61 -37 66 -33 2 3 -12 12 -31 21 -19 9 -35 15 -35
12z"/>
<path d="M2068 3195 c-3 -3 -54 -6 -114 -7 -68 -1 -96 -4 -74 -8 43 -8 247 0
275 11 14 5 5 8 -31 8 -28 1 -53 -1 -56 -4z"/>
<path d="M2221 3164 c0 -11 3 -14 6 -6 3 7 2 16 -1 19 -3 4 -6 -2 -5 -13z"/>
<path d="M1871 3098 c-1 -3 6 -41 14 -84 8 -43 13 -80 10 -82 -2 -2 -34 -7
-71 -10 -50 -4 -62 -7 -49 -15 10 -5 40 -7 67 -4 l50 6 -6 -27 -6 -27 19 23
c35 41 61 21 36 -27 -22 -44 -18 -51 7 -13 18 30 23 32 36 18 13 -13 13 -19
-2 -55 -19 -50 -15 -52 14 -7 15 25 26 33 38 29 15 -6 15 -5 3 10 -11 14 -12
23 -2 44 14 31 7 43 -9 14 -11 -22 -35 -28 -45 -11 -3 5 4 28 15 51 12 22 19
43 16 46 -2 3 -14 -14 -26 -37 -19 -38 -23 -41 -37 -28 -13 14 -13 19 1 46 24
46 19 62 -6 22 l-21 -35 -17 65 c-17 68 -28 100 -29 88z"/>
<path d="M2292 3058 c2 -6 11 -13 19 -16 12 -3 12 -2 0 6 -11 8 -10 11 5 15
16 4 15 5 -4 6 -14 1 -22 -4 -20 -11z"/>
<path d="M2290 2990 c20 -13 53 -13 45 0 -3 6 -18 10 -33 10 -21 0 -24 -2 -12
-10z"/>
<path d="M2310 2931 l-25 -7 24 -8 c16 -6 28 -3 39 8 18 18 8 20 -38 7z"/>
<path d="M4102 2840 c0 -14 2 -19 5 -12 2 6 2 18 0 25 -3 6 -5 1 -5 -13z"/>
<path d="M2307 2760 c30 -53 56 -90 65 -90 9 0 -10 30 -52 80 -12 14 -18 18
-13 10z"/>
<path d="M1640 2720 c-27 -54 -19 -79 41 -119 27 -19 49 -41 49 -49 0 -9 6
-12 16 -8 8 3 42 -8 76 -25 56 -28 62 -29 77 -14 15 15 14 16 -10 10 -19 -5
-42 1 -78 19 -28 15 -51 28 -51 30 0 2 10 30 22 61 15 41 25 54 36 50 11 -4
12 -2 4 8 -6 7 -9 23 -5 35 3 13 1 22 -6 22 -6 0 -11 -7 -11 -15 0 -20 -8 -19
-55 10 -58 36 -81 33 -105 -15z m108 0 l42 -30 -23 -52 c-13 -28 -27 -53 -33
-55 -6 -2 -29 10 -52 27 -35 25 -42 36 -42 63 0 39 24 77 49 77 10 0 37 -13
59 -30z"/>
<path d="M2325 2650 c8 -27 44 -90 51 -90 4 0 -45 100 -54 110 -2 3 -1 -6 3
-20z"/>
<path d="M1911 2615 c4 -5 9 -19 11 -30 2 -13 6 -16 11 -9 4 7 -1 20 -11 31
-9 10 -14 14 -11 8z"/>
<path d="M1560 2434 c-13 -33 -13 -77 0 -69 6 3 10 20 10 36 0 17 6 32 14 35
8 3 57 -19 108 -50 104 -61 148 -77 148 -53 0 10 -7 13 -20 10 -12 -3 -45 10
-87 35 -73 42 -149 82 -158 82 -3 0 -10 -12 -15 -26z"/>
<path d="M2450 2396 c0 -2 8 -10 18 -17 15 -13 16 -12 3 4 -13 16 -21 21 -21
13z"/>
<path d="M1590 2367 c0 -2 43 -30 95 -62 52 -31 98 -62 102 -68 4 -6 6 -24 5
-39 -1 -15 2 -28 8 -28 5 0 10 16 10 34 0 28 -7 40 -32 60 -36 27 -188 111
-188 103z"/>
<path d="M1631 2283 c0 -4 4 -17 9 -28 8 -19 9 -19 9 2 1 12 -3 25 -9 28 -5 3
-10 3 -9 -2z"/>
<path d="M2632 2237 c26 -23 70 -75 98 -116 55 -81 69 -85 19 -5 -34 54 -137
164 -154 164 -5 0 11 -19 37 -43z"/>
<path d="M3185 2098 c-29 -16 -36 -30 -30 -58 9 -40 31 -51 65 -33 16 8 32 18
35 24 14 22 25 5 25 -39 0 -49 -29 -105 -66 -125 -16 -9 -14 11 7 77 5 16 7
31 5 33 -6 6 -46 -105 -46 -128 0 -25 17 -59 30 -59 6 0 5 8 -2 19 -10 17 -9
23 6 40 11 12 27 21 37 21 10 0 30 5 44 12 61 27 50 -55 -16 -118 l-28 -27
-10 24 c-6 15 -10 18 -10 8 -1 -9 8 -24 20 -35 19 -17 23 -18 66 -2 l45 16 -7
-56 c-4 -32 -15 -77 -26 -101 -10 -24 -19 -56 -19 -71 0 -37 37 -154 61 -193
24 -40 24 -35 -1 30 l-20 52 36 7 c45 8 49 3 29 -36 -16 -32 -16 -32 7 -25 13
4 29 10 36 12 20 8 14 -32 -8 -52 -30 -27 -25 -33 25 -25 46 7 54 3 33 -18 -9
-9 -2 -9 28 -1 45 13 75 34 32 24 -18 -5 -28 -3 -28 4 0 6 8 11 18 11 10 0 27
7 38 15 17 13 15 13 -20 4 -40 -11 -55 -3 -56 29 0 13 6 16 53 26 35 8 36 25
1 18 -20 -4 -25 -2 -19 8 6 9 0 11 -23 5 -17 -3 -33 -2 -36 4 -9 13 22 61 39
61 7 0 18 7 25 15 11 13 10 14 -5 9 -15 -6 -16 -4 -6 14 18 34 13 35 -15 2
-21 -24 -29 -28 -40 -19 -8 6 -14 24 -14 40 0 22 6 30 25 35 14 3 22 10 19 16
-3 5 2 19 13 31 10 12 1 7 -21 -12 -44 -38 -58 -30 -54 29 1 20 -1 40 -5 46
-3 6 -9 30 -13 52 -7 44 -5 45 41 43 11 0 14 2 7 5 -10 4 -10 9 -2 19 10 12 6
12 -19 2 -26 -9 -34 -9 -48 5 -14 14 -15 22 -5 43 9 20 19 25 46 25 19 0 38 5
42 12 4 7 3 8 -5 4 -6 -4 -28 -2 -47 4 -33 11 -36 15 -31 44 3 17 9 40 13 51
7 17 6 18 -8 7 -21 -17 -58 -134 -58 -183 0 -26 -5 -38 -17 -42 -10 -4 -29
-14 -42 -24 -22 -16 -22 -14 8 38 48 86 38 124 -27 101 l-29 -10 19 37 c18 34
21 112 5 128 -4 3 -25 -4 -48 -15 -32 -16 -46 -19 -56 -10 -15 12 -18 32 -3
23 6 -3 7 1 4 10 -4 9 2 25 11 35 21 23 18 24 -10 8z m241 -332 c-3 -11 -6
-25 -6 -31 -1 -20 -20 21 -20 42 0 16 4 21 16 16 10 -4 14 -13 10 -27z m-46
-285 c0 -22 -25 -45 -40 -36 -16 10 -12 33 8 44 25 15 32 13 32 -8z m125 -161
c-3 -5 -12 -10 -18 -10 -7 0 -6 4 3 10 19 12 23 12 15 0z"/>
<path d="M3551 2024 c0 -11 3 -14 6 -6 3 7 2 16 -1 19 -3 4 -6 -2 -5 -13z"/>
<path d="M3591 2012 c-1 -29 22 -92 34 -92 2 0 -2 19 -10 43 -8 23 -16 51 -18
62 -3 12 -5 7 -6 -13z"/>
<path d="M3478 2013 c6 -2 18 -2 25 0 6 3 1 5 -13 5 -14 0 -19 -2 -12 -5z"/>
<path d="M1551 1967 c7 -15 16 -27 21 -27 14 0 9 16 -13 36 -21 19 -21 19 -8
-9z"/>
<path d="M3523 1978 c-20 -26 -26 -41 -15 -34 12 7 36 46 29 46 -3 0 -9 -6
-14 -12z"/>
<path d="M1510 1958 c0 -8 7 -21 15 -28 19 -16 19 -1 0 24 -12 16 -15 17 -15
4z"/>
<path d="M3529 1913 c-13 -16 -12 -17 4 -4 16 13 21 21 13 21 -2 0 -10 -8 -17
-17z"/>
<path d="M2734 1901 c-38 -23 -99 -114 -135 -200 -28 -69 -51 -153 -27 -101 6
14 23 52 36 85 34 80 105 191 133 205 20 11 21 10 15 -6 -20 -51 -28 -187 -17
-271 17 -134 58 -209 169 -310 l88 -81 15 72 c14 69 14 73 -3 68 -10 -2 -28
-17 -39 -33 -11 -16 -25 -29 -30 -29 -15 0 -10 49 8 87 16 34 16 36 -3 46 -23
13 -76 68 -71 74 2 2 24 7 48 12 l44 8 -42 12 c-40 11 -59 31 -30 31 6 0 -8
18 -33 40 -39 35 -41 39 -17 30 50 -18 63 -11 22 11 -44 23 -93 66 -63 56 41
-14 86 -18 92 -8 4 6 -8 30 -27 54 -50 62 -54 70 -28 62 28 -8 27 1 -5 42 -18
24 -23 38 -16 46 17 20 -50 19 -84 -2z"/>
<path d="M3551 1884 c0 -11 3 -14 6 -6 3 7 2 16 -1 19 -3 4 -6 -2 -5 -13z"/>
<path d="M3542 1751 c-6 -15 -20 -38 -33 -50 -12 -11 -18 -21 -12 -21 14 0 48
46 57 78 11 32 0 27 -12 -7z"/>
<path d="M3574 1528 c-4 -6 -3 -8 4 -4 5 3 13 0 15 -6 3 -8 6 -6 6 5 1 19 -14
23 -25 5z"/>
<path d="M3082 1225 c0 -44 3 -91 7 -105 5 -14 6 18 4 70 -6 121 -11 139 -11
35z"/>
<path d="M3400 1273 c0 -17 72 -73 93 -73 13 0 17 -5 13 -15 -17 -42 -16 -47
2 -19 11 18 26 34 34 37 7 3 0 6 -17 6 -32 1 -92 32 -112 59 -7 9 -13 11 -13
5z"/>
<path d="M3014 1153 c9 -18 26 -38 39 -44 19 -10 18 -7 -8 22 -16 19 -34 39
-39 44 -4 6 -1 -4 8 -22z"/>
<path d="M3222 1070 c0 -14 2 -19 5 -12 2 6 2 18 0 25 -3 6 -5 1 -5 -13z"/>
<path d="M3231 1030 c1 -18 27 -89 28 -76 1 6 18 -6 38 -25 l37 -34 -38 44
c-21 24 -44 57 -52 75 -7 17 -13 24 -13 16z"/>
<path d="M3128 385 c-34 -69 -58 -128 -55 -132 4 -3 14 11 23 33 9 21 35 81
59 132 24 50 42 92 39 92 -3 0 -32 -56 -66 -125z"/>
<path d="M2056 418 c3 -5 83 -47 177 -94 95 -47 176 -90 182 -95 5 -5 20 -9
35 -8 24 1 24 1 -5 11 -16 6 -64 30 -105 54 -41 23 -95 51 -120 61 -24 10 -72
32 -107 48 -34 17 -59 27 -57 23z"/>
</g>
</svg>
